<svg aria-hidden="true" xmlns="http://www.w3.org/2000/svg" width="12" height="10" viewBox="0 0 12 10" fill="none">
    <path d="M4.26483 0C6.30772 0 7.33925 1.5325 7.43285 2.6935C7.47629 3.2335 7.36853 3.74775 7.19669 4.16425C7.11917 4.35175 7.01813 4.54175 6.89621 4.715C7.17446 4.71162 7.45274 4.71329 7.73094 4.72C8.40822 4.73825 9.25735 4.8025 9.98983 5.0295C10.1614 5.08275 10.2922 5.01525 10.5202 4.812C10.5418 4.79275 10.653 4.68825 10.7518 4.6245C10.785 4.603 10.843 4.5685 10.9184 4.54025C11.0411 4.49361 11.1728 4.47834 11.3024 4.49575C11.4671 4.51784 11.621 4.59296 11.7427 4.71062C11.8644 4.82827 11.9477 4.98259 11.9811 5.152C12.0106 5.298 11.9979 5.427 11.9931 5.4755C11.9859 5.54218 11.9758 5.6085 11.9629 5.67425C11.9389 5.80025 11.9007 5.9655 11.8534 6.16599C11.6571 7.00099 11.3192 7.91749 10.796 8.64424C10.268 9.37774 9.48655 9.99549 8.43438 9.99549C6.20548 9.99549 5.44876 10.046 3.80643 9.80899C2.95154 9.68549 2.32225 9.27774 1.92097 8.70299C1.53433 8.14924 1.40377 7.50549 1.40377 6.95874C1.40377 6.29899 1.54153 5.77425 1.73881 5.35875C1.65793 5.34375 1.57345 5.32575 1.48729 5.30125C1.03632 5.1745 0.594001 4.918 0.161517 4.39375C-0.124565 4.0475 -0.00720411 3.55225 0.329998 3.346L0.57168 3.19425C1.0764 2.86775 1.18657 2.728 1.22449 2.6855C1.23185 2.67716 1.24129 2.66658 1.25281 2.65375C1.24827 2.58885 1.24595 2.52381 1.24585 2.45875C1.24585 1.3225 2.30953 0 4.26483 0Z" fill="#E4B61A"/>
</svg>